<?xml version="1.0" encoding="utf-8"?>
<!-- Generator: Adobe Illustrator 28.1.0, SVG Export Plug-In . SVG Version: 6.00 Build 0)  -->
<svg version="1.1" id="图层_1" xmlns="http://www.w3.org/2000/svg" xmlns:xlink="http://www.w3.org/1999/xlink" x="0px" y="0px"
	 viewBox="0 0 800 400" style="enable-background:new 0 0 800 400;" xml:space="preserve">
<style type="text/css">
	.st0{fill:#FFFFFF;}
</style>
<g>
	<g>
		<g>
			<g>
				<path class="st0" d="M311,244.5v-31.9h16v28H316v3.9H311z M316,224h5.9v-6.4H316V224z M316,235.6h5.9v-6.8H316V235.6z
					 M325.8,253.2c-0.4-0.5-1.1-1.2-1.9-1.9c-0.9-0.8-1.6-1.3-2.2-1.7c3.4-2.5,5.8-5.9,7.1-10.1c0.9-2.8,1.3-6.5,1.3-11v-16.5h20.6
					v34.6c0,1.5-0.2,2.6-0.5,3.4c-0.4,0.8-1,1.4-1.9,1.8c-1.4,0.7-4.1,1-8.2,1c-0.2-1.7-0.9-3.5-1.9-5.3c2.4,0.1,4.4,0.1,6,0
					c0.7,0,1.1-0.4,1.1-1.1v-8.1h-10.7C333.2,245,330.2,249.9,325.8,253.2z M335.2,233.6h10.1v-5.9h-9.8v0.7
					C335.4,230.4,335.4,232.1,335.2,233.6z M335.4,222.8h9.8V217h-9.8V222.8z"/>
				<path class="st0" d="M383.5,252.7v-7.5h-10.6v-2.2c-4.7,3.6-7.4,5.9-8.1,6.9v0c-0.2-0.5-0.5-1-1.1-1.7c-0.5-0.6-0.9-1.1-1.3-1.5
					c1.3-1.1,1.9-2.6,1.9-4.5v-11.3h-1.7c-0.1,5.2-0.4,9.4-1,12.5c-0.8,3.8-2,6.9-3.8,9.1c-0.3-0.6-0.8-1.3-1.4-2
					c-0.6-0.8-1.3-1.3-1.8-1.7c1.4-1.8,2.3-4.3,2.9-7.5c0.4-2.5,0.6-6,0.7-10.5h-2.8v-5.1h5.9v-15h4.5v13c1.1-3.2,1.9-6.7,2.5-10.6
					l4.2,1c-0.2,0.7-0.5,1.7-1,3.1c-1.2,3.7-2,6.2-2.5,7.6l-3.3-0.9v1.8h6.1v5.1h-3.2v10.4l3.2-2.3c0.2,0.7,0.5,1.5,1.1,2.5v-1.1
					h10.6v-3.9h-4.3c-2.3,0-3.6,0.2-4.1,0.7c-0.2-1.1-0.8-2.7-1.6-4.7c0.7-0.2,1.5-1.1,2.4-2.7c0.4-0.6,0.9-1.6,1.5-2.9h-3.1v-4.3
					h4.9c0.8-2,1.3-3.6,1.6-4.8l5.3,1.1c-0.2,0.8-0.7,2-1.4,3.7h10.5v4.3h-12.5c-0.8,1.6-1.6,3.2-2.5,4.8h3.1v-3.4h5.3v3.4h7.8v4.8
					h-7.8v3.9h9v4.9h-9v7.5H383.5z M357.2,224.8c-0.2-2.8-0.8-6.3-1.8-10.5l3.5-0.8c1,4,1.7,7.5,2.1,10.4L357.2,224.8z M372.7,221.3
					v-9.2h23.9v9.2h-4.8V217h-14.6v4.3H372.7z"/>
				<path class="st0" d="M419.3,252.8V245c-2.3,1.6-4.8,3.1-7.6,4.5c-2.8,1.3-5.5,2.3-8.2,3.1c-1.1-1.8-2.3-3.3-3.5-4.5
					c5.6-1.2,10.6-3,15.1-5.6h-13.6v-4.3h17.8v-1.8h-12.6v-12.4c-0.7,0.7-1.6,1.4-2.6,2.2c-0.4-0.6-1-1.3-1.8-2
					c-0.8-0.7-1.4-1.3-2.1-1.6c2.4-1.7,4.6-3.8,6.5-6.1c1.7-2.1,3.2-4.2,4.3-6.4l5.6,1.1c-0.6,1.2-1.5,2.5-2.5,3.9h6.5
					c0.8-1.7,1.5-3.3,2-4.9l6.1,0.7c-0.7,1.4-1.6,2.8-2.5,4.2h13.7v4.2h-14.4v1.9h12.1v3.6h-12.1v1.9h12.2v3.6h-12.2v2h15.7v4.1
					h-16.8v1.8h18v4.3h-13.5c4.3,2.5,9.2,4.3,14.6,5.5c-1.3,1.2-2.4,2.6-3.4,4.3c-5.7-1.6-11-4.1-15.7-7.5v8H419.3z M411.9,221.1
					h8.6v-1.9h-8.6V221.1z M411.9,226.6h8.6v-1.9h-8.6V226.6z M411.9,232.2h8.6v-2h-8.6V232.2z"/>
				<path class="st0" d="M448.4,252.9v-41h38.9v41H482v-1.6h-28.5v1.6H448.4z M453.5,246.4H482v-29.7h-28.5V246.4z M464,245.8
					c-0.3-1.5-0.8-3-1.7-4.6c1.2,0.1,2.6,0.1,4.1,0.1c0.5,0,0.7-0.3,0.7-0.7v-3.3c-2.8,1.3-6,2.5-9.5,3.6c-0.7-1.3-1.6-2.7-2.9-4
					c4.3-1.3,8.4-2.9,12.4-5v-5.9h-11.5v-4.6h11.5v-3.6h5v3.6h8.1v4.6h-4.4l3.7,3.2c-2,1.9-4.5,3.7-7.5,5.4v6.1
					c0,1.2-0.1,2.1-0.4,2.7c-0.3,0.7-0.8,1.2-1.5,1.6C469.1,245.5,467.1,245.8,464,245.8z M472.2,228.6c1.2-0.8,2.3-1.7,3.3-2.7
					h-3.3V228.6z"/>
			</g>
		</g>
	</g>
	<g>
		<g>
			<g>
				<g>
					<path class="st0" d="M251.9,296.2l1.2-26.2h5.6l6.8,12.3l6.7-12.3h5.7l1.2,26.2h-5.9l-0.7-17.2l-5.4,10.2H264l-5.7-10.1
						l-0.7,17H251.9z"/>
					<path class="st0" d="M283.9,296.2V270h5.9v26.2H283.9z"/>
					<path class="st0" d="M294.9,296.2V270h5.7l11.4,17v-17h5.9v26.2h-5.4l-11.6-17.3v17.3H294.9z"/>
					<path class="st0" d="M336.5,286.6v-4.8h10.1v11.4c-2.8,2.5-6.5,3.7-11,3.7c-4.2,0-7.6-1.3-10-3.8c-2.4-2.5-3.7-5.8-3.7-9.9
						c0-4,1.3-7.3,3.8-9.9c2.5-2.6,5.8-4,9.8-4c4.7,0,8.2,1.7,10.7,5l-4,3.8c-0.9-1.1-1.9-1.9-2.9-2.5c-1-0.6-2.2-0.9-3.6-0.9
						c-2.3,0-4.2,0.8-5.6,2.4c-1.4,1.6-2.1,3.6-2.1,6c0,2.5,0.7,4.5,2.2,6c1.5,1.5,3.4,2.3,5.6,2.3c2.2,0,3.9-0.5,5.2-1.6v-3.3
						H336.5z"/>
					<path class="st0" d="M358.5,296.2V270h17.6v5.2h-11.7v5.9h8.9v5.1h-8.9v10H358.5z"/>
					<path class="st0" d="M373.6,296.2l9.8-26.2h6.6l9.6,26.2h-6.5l-2-6h-9.2l-2,6H373.6z M383.2,285.6h6.4l-3.2-9.9L383.2,285.6z"
						/>
					<path class="st0" d="M402.5,296.2V270h5.9v26.2H402.5z"/>
					<path class="st0" d="M434.2,286.6v-4.8h10.1v11.4c-2.8,2.5-6.5,3.7-11,3.7c-4.2,0-7.6-1.3-10-3.8c-2.4-2.5-3.7-5.8-3.7-9.9
						c0-4,1.3-7.3,3.8-9.9c2.5-2.6,5.8-4,9.8-4c4.7,0,8.2,1.7,10.7,5l-4,3.8c-0.9-1.1-1.9-1.9-2.9-2.5c-1-0.6-2.2-0.9-3.6-0.9
						c-2.3,0-4.2,0.8-5.6,2.4c-1.4,1.6-2.1,3.6-2.1,6c0,2.5,0.7,4.5,2.2,6c1.5,1.5,3.4,2.3,5.6,2.3c2.2,0,3.9-0.5,5.2-1.6v-3.3
						H434.2z"/>
					<path class="st0" d="M449.1,296.2V270h9.8c2.9,0,5.2,0.8,6.8,2.3c1.6,1.5,2.4,3.5,2.4,5.9c0,3.4-1.4,5.9-4.3,7.5l5.8,10.5H463
						l-4.9-9.6h-3.3v9.6H449.1z M454.9,281.8h3.7c1.1,0,1.9-0.3,2.6-1c0.6-0.6,1-1.5,1-2.5c0-1.1-0.3-1.9-0.9-2.6
						c-0.6-0.6-1.5-0.9-2.6-0.9h-3.7V281.8z"/>
					<path class="st0" d="M495,292.9c-2.6,2.6-5.9,4-9.7,4c-3.9,0-7.1-1.3-9.7-4c-2.6-2.6-3.9-5.9-3.9-9.8c0-3.9,1.3-7.2,3.9-9.8
						c2.6-2.6,5.9-4,9.7-4c3.9,0,7.1,1.3,9.7,4c2.6,2.6,3.9,5.9,3.9,9.8C498.9,287,497.6,290.3,495,292.9z M485.2,291.3
						c2.2,0,4-0.8,5.4-2.4c1.4-1.6,2-3.6,2-5.9c0-2.3-0.7-4.3-2-5.9c-1.4-1.6-3.2-2.4-5.4-2.4c-2.3,0-4.1,0.8-5.4,2.4
						c-1.4,1.6-2,3.5-2,5.9c0,2.3,0.7,4.3,2,5.9C481.2,290.5,483,291.3,485.2,291.3z"/>
					<path class="st0" d="M502.8,286.3V270h6v15.5c0,3.8,1.7,5.7,5,5.7c3.3,0,5-1.9,5-5.7V270h6v16.3c0,3.2-1,5.7-3,7.7
						c-2,2-4.7,2.9-8,2.9s-6-1-8-2.9C503.8,292.1,502.8,289.5,502.8,286.3z"/>
					<path class="st0" d="M529.7,296.2V270h9.6c3,0,5.3,0.8,6.9,2.4c1.5,1.6,2.3,3.6,2.3,6c0,2.7-0.9,4.8-2.6,6.3
						c-1.7,1.5-3.8,2.3-6.4,2.3h-4v9.2H529.7z M535.5,282.2h3.5c1.1,0,2-0.3,2.6-1c0.6-0.7,1-1.5,1-2.6s-0.3-2-1-2.7
						c-0.7-0.7-1.5-1-2.6-1h-3.4V282.2z"/>
				</g>
			</g>
		</g>
	</g>
	<g>
		<g>
			<g>
				<polygon class="st0" points="371.2,135.3 383.1,135.3 398.9,154 398.9,135.3 410.9,135.3 410.9,178.3 398.9,178.3 383.2,160.5 
					383.2,178.3 371.2,178.3 				"/>
				<path class="st0" d="M435.7,162.6V156h19.8v15.6c-3.8,2.6-7.2,4.4-10.1,5.3c-2.9,0.9-6.4,1.4-10.4,1.4c-4.9,0-8.9-0.8-12.1-2.5
					c-3.1-1.7-5.5-4.2-7.2-7.5c-1.7-3.3-2.6-7.1-2.6-11.4c0-4.6,0.9-8.5,2.8-11.9c1.9-3.3,4.6-5.9,8.2-7.6c2.8-1.4,6.6-2,11.3-2
					c4.6,0,8,0.4,10.3,1.3c2.3,0.8,4.2,2.1,5.7,3.9c1.5,1.8,2.6,4,3.4,6.7l-12.4,2.2c-0.5-1.6-1.4-2.8-2.6-3.6
					c-1.2-0.8-2.8-1.2-4.7-1.2c-2.8,0-5,1-6.7,2.9c-1.7,2-2.5,5-2.5,9.3c0,4.5,0.9,7.7,2.5,9.6c1.7,1.9,4,2.9,7.1,2.9
					c1.4,0,2.8-0.2,4.1-0.6c1.3-0.4,2.8-1.1,4.5-2.1v-3.9H435.7"/>
				<path class="st0" d="M468.7,135.3l-13,43h15.9c0,0,4.4-14.4,4.9-16h15.2l4.2-11.2h-16.3c0.4-1.6,1-3.4,1.3-4.4h18.8l4.2-11.4
					H468.7z M500.4,137.8c-0.7,2-2,5.4-2.4,6.4h-19l-2.6,9.4h16c-0.7,1.9-2,5.2-2.4,6.3h-15.3c0,0-4.5,14.4-4.9,16H459
					c0.9-2.9,11-36.4,11.5-38H500.4z"/>
				<path class="st0" d="M353.8,178.3h15.4v-43h-15.4V178.3z M366.7,175.9h-10.4v-38.1h10.4V175.9z"/>
				<polygon class="st0" points="522.5,178.3 535.9,178.3 520.4,135.3 506.2,135.3 490.7,178.3 503.8,178.3 513.1,149.9 				"/>
				<path class="st0" d="M555.3,126.3c1.9,2.8-0.7,8.2-6.1,12.8l0,0c-0.9,0.8-1.8,1.5-2.8,2.2c-3.5,2.4-7,4-10.1,4.6h0
					c-3.2,0.6-5.9,0.2-7-1.5c-2.3-3.3,1.7-9.9,8.9-14.9C545.4,124.5,553,123.1,555.3,126.3 M548.7,135.3h-12.9v43h12.9V135.3z"/>
			</g>
			<g>
				<path class="st0" d="M329.4,107.4c-3.1-5-10.1-5.8-14.2-1.6l-11.3,11.6l16.7,27l3-3l22.8,37.1h7.4V147L329.4,107.4z"/>
				<path class="st0" d="M332.1,171l-26.8-43.3c-2.3-3.7-7.4-4.3-10.5-1.2l-50.8,51.8h38.1l18.5-18.9l11.7,18.9h21.4
					c2.7,0,6-0.5,5.9-3.4C336.1,176.3,334.1,173.9,332.1,171z"/>
			</g>
		</g>
	</g>
</g>
</svg>
