<?xml version="1.0" encoding="utf-8"?>
<!-- Generator: Adobe Illustrator 28.1.0, SVG Export Plug-In . SVG Version: 6.00 Build 0)  -->
<svg version="1.1" id="mail" xmlns="http://www.w3.org/2000/svg" xmlns:xlink="http://www.w3.org/1999/xlink" x="0px" y="0px"
	 viewBox="0 0 28.3 28.3" style="enable-background:new 0 0 28.3 28.3;" xml:space="preserve">
<style type="text/css">
	.st0{fill:#004545;}
</style>
<path class="st0" d="M14.1,0C6.3,0,0,6.3,0,14.1s6.3,14.1,14.1,14.1S28.3,22,28.3,14.1S22,0,14.1,0z M20.6,20.6H7.3
	c-0.6,0-1.1-0.5-1.1-1.1l0,0v-8.2c0-0.2,0.2-0.4,0.4-0.4c0.1,0,0.1,0,0.2,0.1l6.7,4.5c0.2,0.1,0.5,0.2,0.7,0.2
	c0.2,0,0.4-0.1,0.6-0.2l6.4-4.5c0.2-0.1,0.4-0.1,0.5,0.1c0,0.1,0.1,0.1,0.1,0.2v8.2C21.8,20.1,21.3,20.6,20.6,20.6L20.6,20.6
	L20.6,20.6z M21.8,9.2L14.6,14c-0.3,0.2-0.6,0.2-0.8,0L6.2,9.2C6.2,8.6,6.7,8,7.3,8l0,0h13.3C21.3,8,21.8,8.6,21.8,9.2L21.8,9.2z"/>
</svg>
